<svg xmlns="http://www.w3.org/2000/svg" width="807" height="600"><rect width="807" height="600" x="0" y="0" fill="#FFFFFF" id="background"/><g id="viz"><clipPath id="serieClipPath"><rect x="-50" y="-10" width="807" height="600"/></clipPath><g transform="translate(0,0)"><g transform="translate(50,10)" clip-path="url(#serieClipPath)"><g id="axis"><g transform="translate(0,570)" fill="none" font-size="10" font-family="sans-serif" text-anchor="middle"><path class="domain" stroke="currentColor" d="M0,6V0H742V6"/><g class="tick" opacity="1" transform="translate(0,0)"><line stroke="currentColor" y2="6"/><text fill="currentColor" y="9" dy="0.71em">0</text></g><g class="tick" opacity="1" transform="translate(49.46666666666667,0)"><line stroke="currentColor" y2="6"/><text fill="currentColor" y="9" dy="0.71em">2</text></g><g class="tick" opacity="1" transform="translate(98.93333333333334,0)"><line stroke="currentColor" y2="6"/><text fill="currentColor" y="9" dy="0.71em">4</text></g><g class="tick" opacity="1" transform="translate(148.4,0)"><line stroke="currentColor" y2="6"/><text fill="currentColor" y="9" dy="0.71em">6</text></g><g class="tick" opacity="1" transform="translate(197.86666666666667,0)"><line stroke="currentColor" y2="6"/><text fill="currentColor" y="9" dy="0.71em">8</text></g><g class="tick" opacity="1" transform="translate(247.33333333333331,0)"><line stroke="currentColor" y2="6"/><text fill="currentColor" y="9" dy="0.71em">10</text></g><g class="tick" opacity="1" transform="translate(296.8,0)"><line stroke="currentColor" y2="6"/><text fill="currentColor" y="9" dy="0.71em">12</text></g><g class="tick" opacity="1" transform="translate(346.26666666666665,0)"><line stroke="currentColor" y2="6"/><text fill="currentColor" y="9" dy="0.71em">14</text></g><g class="tick" opacity="1" transform="translate(395.73333333333335,0)"><line stroke="currentColor" y2="6"/><text fill="currentColor" y="9" dy="0.71em">16</text></g><g class="tick" opacity="1" transform="translate(445.2,0)"><line stroke="currentColor" y2="6"/><text fill="currentColor" y="9" dy="0.71em">18</text></g><g class="tick" opacity="1" transform="translate(494.66666666666663,0)"><line stroke="currentColor" y2="6"/><text fill="currentColor" y="9" dy="0.71em">20</text></g><g class="tick" opacity="1" transform="translate(544.1333333333333,0)"><line stroke="currentColor" y2="6"/><text fill="currentColor" y="9" dy="0.71em">22</text></g><g class="tick" opacity="1" transform="translate(593.6,0)"><line stroke="currentColor" y2="6"/><text fill="currentColor" y="9" dy="0.71em">24</text></g><g class="tick" opacity="1" transform="translate(643.0666666666667,0)"><line stroke="currentColor" y2="6"/><text fill="currentColor" y="9" dy="0.71em">26</text></g><g class="tick" opacity="1" transform="translate(692.5333333333333,0)"><line stroke="currentColor" y2="6"/><text fill="currentColor" y="9" dy="0.71em">28</text></g><g class="tick" opacity="1" transform="translate(742,0)"><line stroke="currentColor" y2="6"/><text fill="currentColor" y="9" dy="0.71em">30</text></g><text x="742" dy="-5" text-anchor="end" style="font-family: Arial, sans-serif; font-size: 12px; fill: rgb(123, 123, 123); font-weight: bold;">lap</text></g><g transform="translate(0,0)" fill="none" font-size="10" font-family="sans-serif" text-anchor="end"><path class="domain" stroke="currentColor" d="M0,570V0"/><g class="tick" opacity="1" transform="translate(0,570)"><line stroke="currentColor" x2="-6"/><text fill="currentColor" x="-9" dy="0.32em">56</text></g><g class="tick" opacity="1" transform="translate(0,529.2857142857143)"><line stroke="currentColor" x2="-6"/><text fill="currentColor" x="-9" dy="0.32em">58</text></g><g class="tick" opacity="1" transform="translate(0,488.5714285714286)"><line stroke="currentColor" x2="-6"/><text fill="currentColor" x="-9" dy="0.32em">60</text></g><g class="tick" opacity="1" transform="translate(0,447.85714285714283)"><line stroke="currentColor" x2="-6"/><text fill="currentColor" x="-9" dy="0.32em">62</text></g><g class="tick" opacity="1" transform="translate(0,407.14285714285717)"><line stroke="currentColor" x2="-6"/><text fill="currentColor" x="-9" dy="0.32em">64</text></g><g class="tick" opacity="1" transform="translate(0,366.4285714285714)"><line stroke="currentColor" x2="-6"/><text fill="currentColor" x="-9" dy="0.32em">66</text></g><g class="tick" opacity="1" transform="translate(0,325.7142857142857)"><line stroke="currentColor" x2="-6"/><text fill="currentColor" x="-9" dy="0.32em">68</text></g><g class="tick" opacity="1" transform="translate(0,285)"><line stroke="currentColor" x2="-6"/><text fill="currentColor" x="-9" dy="0.32em">70</text></g><g class="tick" opacity="1" transform="translate(0,244.2857142857143)"><line stroke="currentColor" x2="-6"/><text fill="currentColor" x="-9" dy="0.32em">72</text></g><g class="tick" opacity="1" transform="translate(0,203.57142857142856)"><line stroke="currentColor" x2="-6"/><text fill="currentColor" x="-9" dy="0.32em">74</text></g><g class="tick" opacity="1" transform="translate(0,162.85714285714286)"><line stroke="currentColor" x2="-6"/><text fill="currentColor" x="-9" dy="0.32em">76</text></g><g class="tick" opacity="1" transform="translate(0,122.14285714285715)"><line stroke="currentColor" x2="-6"/><text fill="currentColor" x="-9" dy="0.32em">78</text></g><g class="tick" opacity="1" transform="translate(0,81.42857142857146)"><line stroke="currentColor" x2="-6"/><text fill="currentColor" x="-9" dy="0.32em">80</text></g><g class="tick" opacity="1" transform="translate(0,40.714285714285694)"><line stroke="currentColor" x2="-6"/><text fill="currentColor" x="-9" dy="0.32em">82</text></g><g class="tick" opacity="1" transform="translate(0,0)"><line stroke="currentColor" x2="-6"/><text fill="currentColor" x="-9" dy="0.32em">84</text></g><text x="4" text-anchor="start" dominant-baseline="hanging" style="font-family: Arial, sans-serif; font-size: 12px; fill: rgb(123, 123, 123); font-weight: bold;">time</text></g></g><g id="viz"><g><path d="M24.733333333333334,4.274999999999846C37.1,4.274999999999846,37.1,178.06392857142856,49.46666666666667,178.06392857142856C61.833333333333336,178.06392857142856,61.833333333333336,406.26749999999987,74.2,406.26749999999987C86.56666666666666,406.26749999999987,86.56666666666666,455.32821428571424,98.93333333333334,455.32821428571424C111.3,455.32821428571424,111.3,313.74428571428587,123.66666666666666,313.74428571428587C136.03333333333333,313.74428571428587,136.03333333333333,398.04321428571427,148.4,398.04321428571427C160.76666666666665,398.04321428571427,160.76666666666665,484.4796428571429,173.13333333333333,484.4796428571429C185.5,484.4796428571429,185.5,524.4203571428573,197.86666666666667,524.4203571428573C210.23333333333335,524.4203571428573,210.23333333333335,498.2817857142856,222.6,498.2817857142856C234.96666666666664,498.2817857142856,234.96666666666664,516.9085714285715,247.33333333333331,516.9085714285715C259.7,516.9085714285715,259.7,537.3064285714286,272.06666666666666,537.3064285714286C284.43333333333334,537.3064285714286,284.43333333333334,415.12285714285724,296.8,415.12285714285724C309.1666666666667,415.12285714285724,309.1666666666667,437.65821428571434,321.53333333333336,437.65821428571434C333.9,437.65821428571434,333.9,342.9160714285714,346.26666666666665,342.9160714285714C358.6333333333333,342.9160714285714,358.6333333333333,506.1396428571428,371,506.1396428571428C383.3666666666667,506.1396428571428,383.3666666666667,537.0010714285714,395.73333333333335,537.0010714285714C408.1,537.0010714285714,408.1,514.6896428571429,420.46666666666664,514.6896428571429C432.8333333333333,514.6896428571429,432.8333333333333,482.3828571428571,445.2,482.3828571428571C457.56666666666666,482.3828571428571,457.56666666666666,515.7889285714286,469.93333333333334,515.7889285714286C482.29999999999995,515.7889285714286,482.29999999999995,537.9782142857143,494.66666666666663,537.9782142857143C507.0333333333333,537.9782142857143,507.0333333333333,425.93250000000006,519.4,425.93250000000006C531.7666666666667,425.93250000000006,531.7666666666667,540.4210714285714,544.1333333333333,540.4210714285714C556.5,540.4210714285714,556.5,372.6782142857143,568.8666666666667,372.6782142857143C581.2333333333333,372.6782142857143,581.2333333333333,372.16928571428565,593.6,372.16928571428565C605.9666666666667,372.16928571428565,605.9666666666667,479.89928571428567,618.3333333333334,479.89928571428567C630.7,479.89928571428567,630.7,482.64750000000004,643.0666666666667,482.64750000000004C655.4333333333334,482.64750000000004,655.4333333333334,529.1635714285715,667.8000000000001,529.1635714285715C680.1666666666667,529.1635714285715,680.1666666666667,535.5557142857143,692.5333333333333,535.5557142857143C704.9,535.5557142857143,704.9,550.2942857142856,717.2666666666667,550.2942857142856" stroke="#1f77b4" fill="none"/><g><circle class="dot" cx="24.733333333333334" cy="4.274999999999846" r="5" fill="#1f77b4"/><circle class="dot" cx="49.46666666666667" cy="178.06392857142856" r="5" fill="#1f77b4"/><circle class="dot" cx="74.2" cy="406.26749999999987" r="5" fill="#1f77b4"/><circle class="dot" cx="98.93333333333334" cy="455.32821428571424" r="5" fill="#1f77b4"/><circle class="dot" cx="123.66666666666666" cy="313.74428571428587" r="5" fill="#1f77b4"/><circle class="dot" cx="148.4" cy="398.04321428571427" r="5" fill="#1f77b4"/><circle class="dot" cx="173.13333333333333" cy="484.4796428571429" r="5" fill="#1f77b4"/><circle class="dot" cx="197.86666666666667" cy="524.4203571428573" r="5" fill="#1f77b4"/><circle class="dot" cx="222.6" cy="498.2817857142856" r="5" fill="#1f77b4"/><circle class="dot" cx="247.33333333333331" cy="516.9085714285715" r="5" fill="#1f77b4"/><circle class="dot" cx="272.06666666666666" cy="537.3064285714286" r="5" fill="#1f77b4"/><circle class="dot" cx="296.8" cy="415.12285714285724" r="5" fill="#1f77b4"/><circle class="dot" cx="321.53333333333336" cy="437.65821428571434" r="5" fill="#1f77b4"/><circle class="dot" cx="346.26666666666665" cy="342.9160714285714" r="5" fill="#1f77b4"/><circle class="dot" cx="371" cy="506.1396428571428" r="5" fill="#1f77b4"/><circle class="dot" cx="395.73333333333335" cy="537.0010714285714" r="5" fill="#1f77b4"/><circle class="dot" cx="420.46666666666664" cy="514.6896428571429" r="5" fill="#1f77b4"/><circle class="dot" cx="445.2" cy="482.3828571428571" r="5" fill="#1f77b4"/><circle class="dot" cx="469.93333333333334" cy="515.7889285714286" r="5" fill="#1f77b4"/><circle class="dot" cx="494.66666666666663" cy="537.9782142857143" r="5" fill="#1f77b4"/><circle class="dot" cx="519.4" cy="425.93250000000006" r="5" fill="#1f77b4"/><circle class="dot" cx="544.1333333333333" cy="540.4210714285714" r="5" fill="#1f77b4"/><circle class="dot" cx="568.8666666666667" cy="372.6782142857143" r="5" fill="#1f77b4"/><circle class="dot" cx="593.6" cy="372.16928571428565" r="5" fill="#1f77b4"/><circle class="dot" cx="618.3333333333334" cy="479.89928571428567" r="5" fill="#1f77b4"/><circle class="dot" cx="643.0666666666667" cy="482.64750000000004" r="5" fill="#1f77b4"/><circle class="dot" cx="667.8000000000001" cy="529.1635714285715" r="5" fill="#1f77b4"/><circle class="dot" cx="692.5333333333333" cy="535.5557142857143" r="5" fill="#1f77b4"/><circle class="dot" cx="717.2666666666667" cy="550.2942857142856" r="5" fill="#1f77b4"/></g><text font-family="sans-serif" font-size="10" class="labels" x="24.733333333333334" y="4.274999999999846" dx="0" dy="-4" text-anchor="middle"/></g></g></g><text y="4" x="4" style="font-family: Arial, sans-serif; font-size: 12px; fill: black; font-weight: bold; dominant-baseline: hanging;"/></g><g id="grid"><rect x="0" y="0" width="807" height="600" fill="none" stroke="#ccc"/></g></g></svg>